<mxfile host="app.diagrams.net" agent="Mozilla/5.0 (Windows NT 10.0; Win64; x64) AppleWebKit/537.36 (KHTML, like Gecko) Chrome/128.0.0.0 Safari/537.36" version="24.7.14">
  <diagram name="Page-1" id="P_qH4MEsqkKZK1A6lMwr">
    <mxGraphModel dx="2563" dy="883" grid="1" gridSize="10" guides="1" tooltips="1" connect="1" arrows="1" fold="1" page="1" pageScale="1" pageWidth="1200" pageHeight="1600" background="none" math="0" shadow="0">
      <root>
        <mxCell id="0" />
        <mxCell id="1" parent="0" />
        <mxCell id="zhULgrPvECHG-PQcQXXU-10" style="edgeStyle=orthogonalEdgeStyle;rounded=0;orthogonalLoop=1;jettySize=auto;html=1;" parent="1" source="IVamuyNJuHmQqt8EVX3B-1" target="zhULgrPvECHG-PQcQXXU-9" edge="1">
          <mxGeometry relative="1" as="geometry">
            <mxPoint x="560" y="360" as="targetPoint" />
            <Array as="points">
              <mxPoint x="550" y="230" />
              <mxPoint x="550" y="230" />
            </Array>
          </mxGeometry>
        </mxCell>
        <mxCell id="IVamuyNJuHmQqt8EVX3B-1" value="ESP 32" style="rounded=0;whiteSpace=wrap;html=1;fillColor=#d0cee2;strokeColor=#56517e;" parent="1" vertex="1">
          <mxGeometry x="240" y="190" width="120" height="60" as="geometry" />
        </mxCell>
        <mxCell id="IVamuyNJuHmQqt8EVX3B-2" value="ZMPT101B" style="rounded=1;whiteSpace=wrap;html=1;fillColor=#fad7ac;strokeColor=#b46504;" parent="1" vertex="1">
          <mxGeometry x="260" y="430" width="90" height="50" as="geometry" />
        </mxCell>
        <mxCell id="IVamuyNJuHmQqt8EVX3B-3" style="edgeStyle=orthogonalEdgeStyle;rounded=0;orthogonalLoop=1;jettySize=auto;html=1;entryX=0.561;entryY=1.017;entryDx=0;entryDy=0;entryPerimeter=0;" parent="1" source="IVamuyNJuHmQqt8EVX3B-2" target="IVamuyNJuHmQqt8EVX3B-1" edge="1">
          <mxGeometry relative="1" as="geometry">
            <Array as="points">
              <mxPoint x="307" y="395" />
            </Array>
          </mxGeometry>
        </mxCell>
        <mxCell id="IVamuyNJuHmQqt8EVX3B-10" style="edgeStyle=orthogonalEdgeStyle;rounded=0;orthogonalLoop=1;jettySize=auto;html=1;entryX=0;entryY=0.25;entryDx=0;entryDy=0;" parent="1" source="IVamuyNJuHmQqt8EVX3B-4" target="IVamuyNJuHmQqt8EVX3B-1" edge="1">
          <mxGeometry relative="1" as="geometry" />
        </mxCell>
        <mxCell id="IVamuyNJuHmQqt8EVX3B-4" value="ACS712" style="rounded=1;whiteSpace=wrap;html=1;fillColor=#fad7ac;strokeColor=#b46504;" parent="1" vertex="1">
          <mxGeometry x="80" y="140" width="90" height="50" as="geometry" />
        </mxCell>
        <mxCell id="IVamuyNJuHmQqt8EVX3B-11" style="edgeStyle=orthogonalEdgeStyle;rounded=0;orthogonalLoop=1;jettySize=auto;html=1;entryX=0;entryY=0.5;entryDx=0;entryDy=0;" parent="1" source="IVamuyNJuHmQqt8EVX3B-5" target="IVamuyNJuHmQqt8EVX3B-1" edge="1">
          <mxGeometry relative="1" as="geometry" />
        </mxCell>
        <mxCell id="IVamuyNJuHmQqt8EVX3B-5" value="ACS712" style="rounded=1;whiteSpace=wrap;html=1;fillColor=#fad7ac;strokeColor=#b46504;" parent="1" vertex="1">
          <mxGeometry x="80" y="240" width="90" height="50" as="geometry" />
        </mxCell>
        <mxCell id="IVamuyNJuHmQqt8EVX3B-14" style="edgeStyle=orthogonalEdgeStyle;rounded=0;orthogonalLoop=1;jettySize=auto;html=1;entryX=0;entryY=0.5;entryDx=0;entryDy=0;strokeColor=#FF195E;" parent="1" source="IVamuyNJuHmQqt8EVX3B-8" target="IVamuyNJuHmQqt8EVX3B-4" edge="1">
          <mxGeometry relative="1" as="geometry" />
        </mxCell>
        <mxCell id="IVamuyNJuHmQqt8EVX3B-8" value="P" style="ellipse;whiteSpace=wrap;html=1;aspect=fixed;fillColor=#e51400;fontColor=#ffffff;strokeColor=#B20000;" parent="1" vertex="1">
          <mxGeometry x="-80" y="140" width="50" height="50" as="geometry" />
        </mxCell>
        <mxCell id="d8oDYJVBc-BULK0DdcAr-7" style="edgeStyle=orthogonalEdgeStyle;rounded=0;orthogonalLoop=1;jettySize=auto;html=1;entryX=0;entryY=0.25;entryDx=0;entryDy=0;fillColor=#dae8fc;strokeColor=#6c8ebf;" edge="1" parent="1" source="IVamuyNJuHmQqt8EVX3B-9" target="IVamuyNJuHmQqt8EVX3B-2">
          <mxGeometry relative="1" as="geometry">
            <Array as="points">
              <mxPoint x="50" y="265" />
              <mxPoint x="50" y="443" />
            </Array>
          </mxGeometry>
        </mxCell>
        <mxCell id="IVamuyNJuHmQqt8EVX3B-9" value="N" style="ellipse;whiteSpace=wrap;html=1;aspect=fixed;fillColor=#0050ef;fontColor=#ffffff;strokeColor=#001DBC;" parent="1" vertex="1">
          <mxGeometry x="-80" y="240" width="50" height="50" as="geometry" />
        </mxCell>
        <mxCell id="IVamuyNJuHmQqt8EVX3B-12" value="" style="pointerEvents=1;verticalLabelPosition=bottom;shadow=0;dashed=0;align=center;html=1;verticalAlign=top;shape=mxgraph.electrical.electro-mechanical.loudspeaker;fillColor=#0050ef;fontColor=#ffffff;strokeColor=#001DBC;" parent="1" vertex="1">
          <mxGeometry x="470" y="140" width="25" height="50" as="geometry" />
        </mxCell>
        <mxCell id="IVamuyNJuHmQqt8EVX3B-15" style="edgeStyle=orthogonalEdgeStyle;rounded=0;orthogonalLoop=1;jettySize=auto;html=1;entryX=0;entryY=0.5;entryDx=0;entryDy=0;strokeColor=#1C1CFF;" parent="1" source="IVamuyNJuHmQqt8EVX3B-9" target="IVamuyNJuHmQqt8EVX3B-5" edge="1">
          <mxGeometry relative="1" as="geometry" />
        </mxCell>
        <mxCell id="IVamuyNJuHmQqt8EVX3B-17" style="edgeStyle=orthogonalEdgeStyle;rounded=0;orthogonalLoop=1;jettySize=auto;html=1;entryX=0;entryY=0.4;entryDx=0;entryDy=0;entryPerimeter=0;" parent="1" source="IVamuyNJuHmQqt8EVX3B-1" target="IVamuyNJuHmQqt8EVX3B-12" edge="1">
          <mxGeometry relative="1" as="geometry">
            <Array as="points">
              <mxPoint x="405" y="210" />
              <mxPoint x="405" y="160" />
            </Array>
          </mxGeometry>
        </mxCell>
        <mxCell id="d8oDYJVBc-BULK0DdcAr-9" style="edgeStyle=orthogonalEdgeStyle;rounded=0;orthogonalLoop=1;jettySize=auto;html=1;entryX=0;entryY=0.5;entryDx=0;entryDy=0;" edge="1" parent="1" source="ZIB0wi4k4L_zeMpGKZEu-1" target="IVamuyNJuHmQqt8EVX3B-2">
          <mxGeometry relative="1" as="geometry" />
        </mxCell>
        <mxCell id="ZIB0wi4k4L_zeMpGKZEu-1" value="Ground" style="ellipse;whiteSpace=wrap;html=1;fillColor=#a0522d;fontColor=#ffffff;strokeColor=#6D1F00;" parent="1" vertex="1">
          <mxGeometry x="-85" y="430" width="60" height="50" as="geometry" />
        </mxCell>
        <mxCell id="zhULgrPvECHG-PQcQXXU-4" value="" style="rounded=1;whiteSpace=wrap;html=1;fillColor=#bac8d3;strokeColor=#23445d;opacity=50;" parent="1" vertex="1">
          <mxGeometry x="-100" y="20" width="100" height="580" as="geometry" />
        </mxCell>
        <mxCell id="zhULgrPvECHG-PQcQXXU-8" value="Eletric Pole" style="text;html=1;align=center;verticalAlign=middle;whiteSpace=wrap;rounded=0;fillColor=#fad7ac;strokeColor=#b46504;" parent="1" vertex="1">
          <mxGeometry x="-87.5" y="520" width="65" height="30" as="geometry" />
        </mxCell>
        <mxCell id="VV-UkVlpk1AsW4a1VtS2-6" style="edgeStyle=orthogonalEdgeStyle;rounded=0;orthogonalLoop=1;jettySize=auto;html=1;entryX=0;entryY=0.5;entryDx=0;entryDy=0;" parent="1" source="zhULgrPvECHG-PQcQXXU-9" target="VV-UkVlpk1AsW4a1VtS2-3" edge="1">
          <mxGeometry relative="1" as="geometry" />
        </mxCell>
        <mxCell id="VV-UkVlpk1AsW4a1VtS2-7" style="edgeStyle=orthogonalEdgeStyle;rounded=0;orthogonalLoop=1;jettySize=auto;html=1;exitX=1;exitY=0.5;exitDx=0;exitDy=0;entryX=0;entryY=0.5;entryDx=0;entryDy=0;" parent="1" source="zhULgrPvECHG-PQcQXXU-9" target="VV-UkVlpk1AsW4a1VtS2-4" edge="1">
          <mxGeometry relative="1" as="geometry" />
        </mxCell>
        <mxCell id="VV-UkVlpk1AsW4a1VtS2-8" style="edgeStyle=orthogonalEdgeStyle;rounded=0;orthogonalLoop=1;jettySize=auto;html=1;entryX=0;entryY=0.75;entryDx=0;entryDy=0;" parent="1" source="zhULgrPvECHG-PQcQXXU-9" target="VV-UkVlpk1AsW4a1VtS2-5" edge="1">
          <mxGeometry relative="1" as="geometry" />
        </mxCell>
        <mxCell id="zhULgrPvECHG-PQcQXXU-9" value="Website" style="rounded=0;whiteSpace=wrap;html=1;fillColor=#6a00ff;strokeColor=#3700CC;fontColor=#ffffff;" parent="1" vertex="1">
          <mxGeometry x="430" y="220" width="120" height="60" as="geometry" />
        </mxCell>
        <mxCell id="zhULgrPvECHG-PQcQXXU-11" value="Fault Prediction&amp;nbsp;&lt;div&gt;Model&amp;nbsp;&lt;/div&gt;" style="shape=process;whiteSpace=wrap;html=1;backgroundOutline=1;fillColor=#fff2cc;gradientColor=#ffd966;strokeColor=#d6b656;" parent="1" vertex="1">
          <mxGeometry x="427.5" y="370" width="110" height="50" as="geometry" />
        </mxCell>
        <mxCell id="zhULgrPvECHG-PQcQXXU-12" style="edgeStyle=orthogonalEdgeStyle;rounded=0;orthogonalLoop=1;jettySize=auto;html=1;entryX=0.432;entryY=1.062;entryDx=0;entryDy=0;entryPerimeter=0;" parent="1" source="zhULgrPvECHG-PQcQXXU-11" target="zhULgrPvECHG-PQcQXXU-9" edge="1">
          <mxGeometry relative="1" as="geometry" />
        </mxCell>
        <mxCell id="VV-UkVlpk1AsW4a1VtS2-3" value="Email" style="rounded=1;whiteSpace=wrap;html=1;fillColor=#ffcccc;strokeColor=#36393d;" parent="1" vertex="1">
          <mxGeometry x="720" y="170" width="110" height="40" as="geometry" />
        </mxCell>
        <mxCell id="VV-UkVlpk1AsW4a1VtS2-4" value="SMS" style="rounded=1;whiteSpace=wrap;html=1;fillColor=#ffcccc;strokeColor=#36393d;" parent="1" vertex="1">
          <mxGeometry x="720" y="230" width="110" height="40" as="geometry" />
        </mxCell>
        <mxCell id="VV-UkVlpk1AsW4a1VtS2-5" value="POP UP" style="rounded=1;whiteSpace=wrap;html=1;fillColor=#ffcccc;strokeColor=#36393d;" parent="1" vertex="1">
          <mxGeometry x="720" y="290" width="110" height="40" as="geometry" />
        </mxCell>
        <mxCell id="d8oDYJVBc-BULK0DdcAr-10" value="" style="rounded=0;whiteSpace=wrap;html=1;fillColor=none;" vertex="1" parent="1">
          <mxGeometry x="-200" y="10" width="1070" height="620" as="geometry" />
        </mxCell>
      </root>
    </mxGraphModel>
  </diagram>
</mxfile>
